<?xml version="1.0" encoding="UTF-8" standalone="no"?>
<!-- Created with Inkscape (http://www.inkscape.org/) -->

<svg
   width="72.78875mm"
   height="67.543724mm"
   viewBox="0 0 72.78875 67.543724"
   version="1.1"
   id="svg1"
   xml:space="preserve"
   inkscape:version="1.3 (0e150ed6c4, 2023-07-21)"
   sodipodi:docname="icon.svg"
   xmlns:inkscape="http://www.inkscape.org/namespaces/inkscape"
   xmlns:sodipodi="http://sodipodi.sourceforge.net/DTD/sodipodi-0.dtd"
   xmlns="http://www.w3.org/2000/svg"
   xmlns:svg="http://www.w3.org/2000/svg"><sodipodi:namedview
     id="namedview1"
     pagecolor="#ffffff"
     bordercolor="#000000"
     borderopacity="0.25"
     inkscape:showpageshadow="2"
     inkscape:pageopacity="0.0"
     inkscape:pagecheckerboard="0"
     inkscape:deskcolor="#d1d1d1"
     inkscape:document-units="mm"
     inkscape:zoom="2.0899411"
     inkscape:cx="99.285096"
     inkscape:cy="176.79924"
     inkscape:window-width="2560"
     inkscape:window-height="1369"
     inkscape:window-x="-8"
     inkscape:window-y="-8"
     inkscape:window-maximized="1"
     inkscape:current-layer="layer1" /><defs
     id="defs1" /><g
     inkscape:label="Calque 1"
     inkscape:groupmode="layer"
     id="layer1"
     transform="translate(-48.271827,-93.489722)"><path
       style="fill:#000000"
       d="m 77.299552,160.66116 c -19.29866,-1.57274 -28.13446,-7.9555 -28.78422,-20.793 -1.17453,-23.20585 1.85879,-31.46993 9.99405,-27.22812 3.0082,1.56851 3.10639,2.05929 2.99434,14.96547 -0.1189,13.69548 0.41011,15.43765 4.6877,15.43765 2.51414,0 2.44337,0.37199 2.64475,-13.90045 0.19371,-13.72901 0.20196,-13.78843 2.16805,-15.62277 2.68909,-2.50889 8.10815,-1.62312 9.70452,1.58624 0.58507,1.17624 0.65438,2.4459 0.71626,13.12031 0.0377,6.49993 0.0774,12.41337 0.0882,13.14097 0.0338,2.26842 2.1444,3.60745 4.28719,2.71987 2.23686,-0.92653 2.24092,-0.95152 2.43527,-14.96255 0.22372,-16.12829 1.39415,-18.58273 8.01167,-16.80081 4.319748,1.16319 4.474358,1.71161 4.686408,16.62424 0.20962,14.74168 0.43748,15.56455 4.0582,14.6558 2.52582,-0.63394 2.80572,-2.0171 2.99928,-14.82137 0.1656,-10.95511 0.22141,-11.75494 0.91263,-13.07976 2.17505,-4.16878 9.15927,-4.41906 11.35495,-0.40691 0.76951,1.40611 1.11788,23.62179 0.44064,28.09996 -1.93863,12.81904 -18.26425,19.31365 -43.399888,17.26523 z m 35.368218,-54.6856 c -2.88231,-0.87116 -4.76799,-4.35944 -3.94521,-7.29814 1.45714,-5.20437 7.68121,-6.16796 11.07764,-1.715 3.37575,4.42583 -1.58191,10.69075 -7.13243,9.01314 z m -38.955358,-0.31895 c -1.58297,-0.47799 -2.74904,-1.51687 -3.65838,-3.25936 -3.49472,-6.69658 6.17822,-12.12863 10.3556,-5.81541 2.87383,4.34317 -1.72594,10.57589 -6.69722,9.07477 z m 19.14249,-0.11074 c -3.83922,-1.2256 -5.16422,-6.25797 -2.49902,-9.49132 4.7128,-5.71744 13.485198,0.64132 9.51702,6.89849 -1.638,2.58285 -4.14633,3.50957 -7.018,2.59283 z m -40.16714,-0.80398 c -5.14221,-2.56247 -4.44205,-9.19424 1.15704,-10.9592 6.79068,-2.14057 11.01185,8.04742 4.61692,11.14315 -1.98708,0.96192 -3.57608,0.9113 -5.77396,-0.18395 z"
       id="path1" /></g></svg>
